PathFileType	4	(X/Y/Z)	61_2_8_p0_0-1555_filt_butterworth.trc
DataRate	CameraRate	NumFrames	NumMarkers	Units	OrigDataRate	OrigDataStartFrame	OrigNumFrames
60.0	60.0	6	27	m	60.0	1166	1555
Frame#	Time	RHip			RKnee			RAnkle			RBigToe			RSmallToe			RHeel			LHip			LKnee			LAnkle			LBigToe			LSmallToe			LHeel			Neck			Head			Nose			RShoulder			RElbow			RWrist			RThumb			RIndex			RPinky			LShoulder			LElbow			LWrist			LThumb			LIndex			LPinky			
		X1	Y1	Z1	X2	Y2	Z2	X3	Y3	Z3	X4	Y4	Z4	X5	Y5	Z5	X6	Y6	Z6	X7	Y7	Z7	X8	Y8	Z8	X9	Y9	Z9	X10	Y10	Z10	X11	Y11	Z11	X12	Y12	Z12	X13	Y13	Z13	X14	Y14	Z14	X15	Y15	Z15	X16	Y16	Z16	X17	Y17	Z17	X18	Y18	Z18	X19	Y19	Z19	X20	Y20	Z20	X21	Y21	Z21	X22	Y22	Z22	X23	Y23	Z23	X24	Y24	Z24	X25	Y25	Z25	X26	Y26	Z26	X27	Y27	Z27	
1166	19.433333333333334	0.3755857242032799	0.6693285858037265	0.9365761407564833	0.36024384144607124	0.7888589479491198	1.3491690659321551	0.3581717657769278	0.9141886832141948	1.7512633971051805	0.29534142126220986	0.6856314384414585	1.7693201453182055	0.3708736301157689	0.7045692776175305	1.7663203314621512	0.3539822549862483	0.9495557703568859	1.8013261520625021	0.18442402606055763	0.6802285027538878	0.9433762581667839	0.16819460365808844	0.8348146204545255	1.3666791288584976	0.15514260708887825	0.924599220879913	1.7777520057938476	0.17235834454486318	0.6524618018242652	1.771611166314502	0.11453415809592701	0.7031297799538707	1.7814004023103824	0.16322237056845856	1.012026677486388	1.8501428364266308	0.2692031480867739	0.4841388153435957	0.43962118841513004	0.2810654286513639	0.3397374339604339	0.21644850244320085	0.27274782418213456	0.33105764441831875	0.36246737026847714	0.4283681406325502	0.4988402431231714	0.49853300284453783	0.4272663584118314	0.41692377248179274	0.721640241162232	0.31663180037406946	0.22148474350985461	0.7113383001490804	0.2626841276240273	0.14281760159740106	0.7262659315581259	0.23876328779607703	0.1152664242679998	0.7474118982820577	0.2361034384246033	0.1663369470512548	0.7600374935050673	0.13269678601412582	0.4804903722360992	0.48433399032006524	0.008193183599743905	0.39062382950883584	0.6290500650466705	0.10692971325047437	0.18466614415732582	0.6915961612957041	0.18447164553368037	0.1474074851697032	0.7265446781584836	0.18071029689405269	0.13285326433323133	0.7389004151227154	0.135648013418653	0.133921222859336	0.7626006336189829
1167	19.45	0.37498983970390815	0.6742597776673345	0.9388283585367156	0.35943070449772224	0.790609404510913	1.349871994485314	0.35808768659827683	0.9145008005675032	1.7511438460182194	0.2999521102137151	0.6940528876028822	1.770014514120856	0.37180524492469	0.7103218337228746	1.7661268366531722	0.35435296979166847	0.9526750705976892	1.8033203846451908	0.1843440553893968	0.6790214962911256	0.9425027257937864	0.16876372990692395	0.8345130043587368	1.3666810907873912	0.155064000279591	0.9242330876853417	1.7776479065875974	0.17366999086929136	0.6519809738283854	1.7698320587994274	0.11586652821716048	0.6986018147044233	1.7793911969314116	0.16312232260555212	1.011908388924565	1.8499228968831103	0.2693478322463412	0.4846078306583943	0.44047648963069025	0.28053589092425313	0.3371808869335376	0.2170108276630869	0.2736466460738576	0.33148674024354013	0.3625462534932021	0.4285891955699348	0.49965991877563554	0.499748751731725	0.4270608109791292	0.41374610069444784	0.7214370891937824	0.31245516141461227	0.21594568496277405	0.7131917206263599	0.2598892502156757	0.14930789045561696	0.7255021376301981	0.2372433343485438	0.1098583854784515	0.7470352905648008	0.23063141724912928	0.15377058537749425	0.7592084734786054	0.13248668535977215	0.4808686270427976	0.4835335307729051	0.008961213070947417	0.38319620942363225	0.6280063615528427	0.10981091955524344	0.18098901530580377	0.6911192715924164	0.1840336020154247	0.14766333257777484	0.7256792266046102	0.18099631053827941	0.13447686131619152	0.7401312018726772	0.14346004436962295	0.13375003650373224	0.7624972162379227
1168	19.466666666666665	0.3737963165059478	0.6775366512547297	0.9403481964256661	0.3583346634304715	0.7924203907534348	1.3496682697768296	0.3578377574728795	0.91500936837807	1.751551382324889	0.30337278316732674	0.6968937547090697	1.7686302048909766	0.3719443415350448	0.7123783552271898	1.7664617165394958	0.3545979306562486	0.9546420932038161	1.8045437116344742	0.1841655023969714	0.6782824487505703	0.9419428303252281	0.16872631869717736	0.8345450187085914	1.3664925237177667	0.15478156288190315	0.9239895422922146	1.777071637769618	0.17458468347970743	0.6521887843849187	1.7690884892429848	0.11619099202425798	0.6935052247168079	1.7771488344001467	0.16303888365872665	1.0118519833131978	1.8498179674783255	0.2695209035245226	0.48498017296113094	0.4408371312695616	0.2797836346798088	0.3335707244152802	0.21771077652404425	0.2738924671376923	0.3312657515775881	0.36264714273761817	0.4288124841511656	0.5003333941430294	0.5015484128162258	0.4271545145565704	0.40892501124984365	0.7214594628108447	0.30841865974566574	0.20884428493704	0.7159927317761664	0.2525378554451726	0.16121885292225235	0.7248112239096733	0.22989784714766864	0.11139523415956723	0.745672698751969	0.22433236358500336	0.14600031413728004	0.7582949189282296	0.13238485450971113	0.4811598529705336	0.48325264091030534	0.010566672015350276	0.38254693254994027	0.6271658287718462	0.11161905421312394	0.17800685227656743	0.6904936265410566	0.18320844268857017	0.1473303916601602	0.7249425194132255	0.1798354119683552	0.13745247407309735	0.7413291496344768	0.1477214586542134	0.1332702560000151	0.7619884514635384
1169	19.48333333333333	0.3717214994277655	0.6801729712120452	0.940905008408861	0.35776359901669375	0.7971447846545322	1.349347642092971	0.35738691119327554	0.9153516712679501	1.7525130128622761	0.3049424332956602	0.69539998726266	1.7665149051527507	0.37169061130852743	0.7127639703392483	1.766895418360953	0.35462158719591236	0.9552085324491029	1.8049341001065828	0.18343882605933734	0.6793699206755457	0.9417068001372615	0.16794619999066443	0.83592476874646	1.366251413767251	0.15409798197785587	0.9237830086323744	1.7760536511101013	0.17521615873033747	0.6523110129550902	1.7689761133722024	0.11599690347589647	0.6894520820013587	1.7752560630424408	0.1629727189209638	1.0118176157504575	1.8498081415950827	0.2696556372641024	0.48493391660751384	0.4408987496222504	0.2786979913761158	0.3306488459882807	0.21817276116726028	0.27347199970074204	0.33084183952391993	0.36274618845587336	0.42867846497225764	0.4995923140267415	0.5028829553688499	0.4277034563249965	0.40400053729041574	0.7219626768264146	0.304664434343825	0.20041505967709017	0.7191304999488815	0.24246579686318637	0.17547865298854365	0.7243549041646643	0.21800627026350988	0.11587260597731136	0.7435473533560593	0.21734017951924534	0.14368642196806147	0.7578915125697517	0.1323684425324732	0.48128765862685097	0.48323696560802387	0.012717320701313315	0.38508445177234674	0.6269881865562841	0.11317738121428109	0.17656518140519156	0.6900065206415553	0.18184493604701563	0.14698181130096363	0.7243906650758791	0.17798019616381786	0.14105392082533952	0.7422511496671855	0.1489277201516866	0.13254181333768647	0.7610199821592403
1170	19.5	0.36911748955552526	0.6823723507920717	0.9412484000412094	0.357976998070163	0.8036243728167024	1.34984899695579	0.3568320764942304	0.9149665779831049	1.7535463147264219	0.30510191583337765	0.6920233589626347	1.7651634821240787	0.371562499656937	0.7139414040661956	1.767607911545936	0.3544905872255877	0.9551490358633227	1.8045941971909074	0.18176475056549996	0.6830370023931731	0.9417530572670059	0.16626354788234418	0.8395687290121333	1.366084770740773	0.1531044051895503	0.9229955307908442	1.774962867680754	0.17550678247211488	0.6520081387316637	1.7689838080395925	0.11584325259117303	0.6875638676444652	1.7743170348174993	0.162949058915094	1.0117355979567952	1.8499226172518237	0.26963004277171837	0.4846043738721323	0.44087040429170266	0.2768562551337802	0.3293273796534567	0.21817137646589407	0.2724588160249728	0.3308010688086592	0.3627619120980714	0.4279396909490569	0.4965782410661181	0.5032126502518306	0.4283034797115761	0.401460610892962	0.7227824668438015	0.3010643771445487	0.19078129239340047	0.7212437973447364	0.23341903326102706	0.18650017351572118	0.7241298864304506	0.20698506589639654	0.11892492646860893	0.7413505400825173	0.21139441148886423	0.14271451287325715	0.7579617924873403	0.1323617859540101	0.4813141927412069	0.4832262066596619	0.014963789943977372	0.3869793524499167	0.6276046168677408	0.11448522930613039	0.17728547041859655	0.6897931132890446	0.18008691648607833	0.14748981500093689	0.7239425475690524	0.17650010636611413	0.1437845671099789	0.7428535383908094	0.1490701704572464	0.13212959603297747	0.7598312930109788
1171	19.516666666666666	0.3670901505216777	0.6840885774946751	0.9422184888663848	0.35864545898788475	0.8087035469774017	1.3518223918258274	0.35634646652380314	0.9138308179907007	1.7541882447882722	0.3045828970677481	0.6889136970560439	1.765198416417276	0.37172615544792786	0.7161295835568814	1.7694036240025404	0.3542792039236003	0.9549717021323956	1.8035594995715252	0.1795708324127379	0.6880146815261212	0.942259695238706	0.16418766633563672	0.844606396269795	1.366267757269881	0.1522825851267403	0.9205063529160563	1.7739907503728285	0.17557134682464018	0.6519105409042741	1.7690635146206428	0.11604184407269795	0.6876716560177706	1.7742390253812332	0.16299832330724062	1.0115753484650496	1.850287820663246	0.26915611742738765	0.4841531904652293	0.4408708062426853	0.2742896272968784	0.32911128680664536	0.21789176270795746	0.2712090792080165	0.33117317616760045	0.3627446240119917	0.4268523451859047	0.4921907524953696	0.5029982348064274	0.427777509149131	0.40203224651417935	0.7234928771761552	0.29739710099121863	0.18105400915812975	0.7218843103985337	0.22855114906583657	0.18931144655174575	0.7235780669704195	0.20143616602087008	0.11763365428919473	0.7396152341033876	0.20721019908819704	0.14020383775365983	0.7580389896105513	0.13233633992219232	0.48129530633800016	0.483178085923056	0.016718894479813746	0.38735451226049167	0.6285966370898753	0.1154752680510672	0.17887272180900826	0.6897528140686823	0.17873922944241113	0.14900574559297164	0.7235749538310259	0.1758576082438619	0.1449399866555034	0.7430234033416577	0.14957166146182904	0.13186895716087535	0.7586449741146394
